<?xml version="1.0" encoding="utf-8"?>
<!-- Generated by IcoMoon.io -->
<!DOCTYPE svg PUBLIC "-//W3C//DTD SVG 1.1//EN" "http://www.w3.org/Graphics/SVG/1.1/DTD/svg11.dtd">
<svg version="1.1" xmlns="http://www.w3.org/2000/svg" xmlns:xlink="http://www.w3.org/1999/xlink" width="32" height="32" viewBox="0 0 32 32">
<path fill="#000000" d="M6.857 20h1.143v6.286h-1.143v-6.286z"></path>
<path fill="#000000" d="M10.484 26.286c-0.69 0-1.38-0.243-1.913-0.584l0.359-0.965c0.477 0.335 1.060 0.543 1.582 0.543 0.69 0 1.004-0.352 1.004-0.745 0-0.404-0.219-0.647-1.274-1.051-1.133-0.433-1.526-0.999-1.526-1.722 0-0.919 0.712-1.762 1.952-1.762 0.623 0 1.234 0.185 1.61 0.41l-0.331 0.953c-0.342-0.196-0.853-0.404-1.302-0.404-0.611 0-0.892 0.352-0.892 0.774 0 0.393 0.314 0.63 1.133 0.942 1.307 0.532 1.677 1.069 1.683 1.86 0 1.086-0.785 1.751-2.087 1.751v0z"></path>
<path fill="#000000" d="M1.714 30.286h28.571v-28.571h-28.571v28.571zM32 32h-32v-32h32v32z"></path>
</svg>
